<?xml version="1.0" standalone="no"?>
<!DOCTYPE svg PUBLIC "-//W3C//DTD SVG 20010904//EN"
 "http://www.w3.org/TR/2001/REC-SVG-20010904/DTD/svg10.dtd">
<svg version="1.0" xmlns="http://www.w3.org/2000/svg"
 width="150.000000pt" height="150.000000pt" viewBox="0 0 150.000000 150.000000"
 preserveAspectRatio="xMidYMid meet">
<metadata>
Created by potrace 1.14, written by Peter Selinger 2001-2017
</metadata>
<g transform="translate(0.000000,150.000000) scale(0.100000,-0.100000)"
fill="#000000" stroke="none">
<path d="M560 1425 c-96 -12 -221 -28 -278 -35 l-103 -12 3 -387 c4 -434 6
-445 85 -580 78 -132 259 -280 417 -342 l70 -27 48 19 c268 105 451 291 508
515 18 70 20 112 20 441 0 199 -2 363 -5 363 -3 0 -136 16 -295 35 -159 19
-291 35 -292 34 -2 -1 -82 -11 -178 -24z m70 -99 l0 -65 33 -4 c28 -3 26 -4
-10 -5 l-43 -2 0 70 c0 40 4 70 10 70 6 0 10 -28 10 -64z m97 -43 c-2 -21 -4
-4 -4 37 0 41 2 58 4 38 2 -21 2 -55 0 -75z m60 0 c-2 -21 -4 -4 -4 37 0 41 2
58 4 38 2 -21 2 -55 0 -75z m124 88 c22 -18 22 -20 7 -43 -15 -23 -15 -27 -1
-47 8 -12 13 -25 10 -27 -3 -3 -15 9 -27 25 -28 40 -50 40 -50 1 0 -16 -4 -30
-10 -30 -6 0 -10 30 -10 70 l0 70 29 0 c16 0 39 -8 52 -19z m-611 -200 c0 -31
-5 -53 -15 -61 -13 -11 -13 -8 -4 19 6 17 9 45 7 61 -3 17 -1 30 4 30 4 0 8
-22 8 -49z m622 19 c-2 -17 2 -38 9 -48 7 -9 2 -7 -11 5 -21 19 -22 25 -12 48
15 33 20 32 14 -5z m-582 0 c-8 -15 -7 -26 1 -42 11 -21 11 -22 -4 -9 -20 16
-22 42 -5 59 17 17 20 15 8 -8z m70 -20 c0 -10 -7 -24 -17 -31 -15 -13 -15
-12 -2 9 12 19 12 25 0 45 -13 20 -13 21 2 8 10 -7 17 -21 17 -31z m32 15 c-2
-14 2 -33 9 -42 12 -14 12 -16 -1 -11 -16 5 -28 78 -12 78 5 0 7 -11 4 -25z
m51 -46 c-5 -5 -6 11 -3 34 4 41 5 41 8 8 2 -18 0 -37 -5 -42z m50 35 c-4 -52
-13 -55 -13 -6 0 23 4 42 8 42 5 0 7 -16 5 -36z m34 5 c-3 -10 -1 -22 4 -25 5
-3 9 -10 9 -17 0 -8 -4 -7 -12 2 -14 13 -18 72 -5 64 5 -3 7 -14 4 -24z m113
-46 c0 -4 -16 8 -35 27 -19 19 -35 38 -35 44 0 6 16 -7 35 -27 19 -20 35 -40
35 -44z m-3 45 c-3 -7 -5 -2 -5 12 0 14 2 19 5 13 2 -7 2 -19 0 -25z m89 -45
c-6 -6 -36 52 -36 69 1 7 10 -4 21 -25 11 -22 18 -41 15 -44z m44 37 c0 -22
-4 -40 -8 -40 -4 0 -9 18 -10 40 -2 23 2 40 8 40 5 0 10 -18 10 -40z m207 -22
c-2 -13 -4 -3 -4 22 0 25 2 35 4 23 2 -13 2 -33 0 -45z m66 19 c3 -22 2 -35
-4 -32 -5 4 -9 22 -9 42 0 45 5 40 13 -10z m50 -28 c-5 -5 -6 11 -3 34 4 41 5
41 8 8 2 -18 0 -37 -5 -42z m44 9 c-2 -13 -4 -3 -4 22 0 25 2 35 4 23 2 -13 2
-33 0 -45z m41 1 c-3 -8 -7 -3 -11 10 -4 17 -3 21 5 13 5 -5 8 -16 6 -23z
m-498 1 c-6 -11 -13 -20 -16 -20 -2 0 0 9 6 20 6 11 13 20 16 20 2 0 0 -9 -6
-20z m-2 -116 c19 -13 26 -12 53 2 40 20 146 20 252 0 43 -8 82 -18 87 -21 6
-3 10 -21 10 -38 0 -18 11 -131 25 -252 14 -121 25 -226 25 -232 0 -10 -92
-13 -425 -13 l-425 0 1 23 c0 12 12 132 27 267 l27 244 45 13 c58 17 184 30
235 25 22 -2 50 -11 63 -18z"/>
<path d="M850 1350 c0 -25 4 -30 25 -30 33 0 45 28 20 46 -30 22 -45 17 -45
-16z"/>
<path d="M396 999 c-3 -8 -14 -108 -26 -224 -11 -116 -23 -227 -26 -247 l-6
-38 417 0 417 0 -6 33 c-3 17 -15 131 -27 252 -12 121 -26 224 -30 230 -13 13
-11 -22 15 -270 13 -121 23 -221 22 -222 -1 0 -35 6 -76 14 -75 14 -259 14
-290 0 -13 -6 -15 23 -15 235 0 184 -3 242 -12 245 -10 4 -13 -49 -13 -241 l0
-246 -26 10 c-35 14 -195 11 -281 -4 l-72 -13 4 26 c11 65 46 464 41 468 -3 3
-8 0 -10 -8z"/>
<path d="M560 1000 c0 -4 9 -10 20 -13 19 -5 20 -13 19 -129 0 -155 -10 -212
-39 -243 -33 -35 -21 -39 19 -8 53 41 61 74 61 238 0 129 2 145 17 145 9 0 13
3 10 7 -10 9 -107 12 -107 3z"/>
<path d="M870 932 c-41 -22 -80 -90 -80 -141 0 -49 34 -113 72 -135 66 -40
192 -42 203 -5 3 11 8 28 11 39 3 11 1 20 -5 20 -6 0 -11 -6 -11 -14 0 -8 -10
-22 -22 -30 -55 -39 -157 -2 -189 67 -47 104 4 197 108 197 56 0 90 -17 99
-49 7 -25 8 -24 15 14 4 22 5 42 2 45 -3 3 -41 6 -86 8 -65 2 -89 -1 -117 -16z"/>
</g>
</svg>
